<svg width="290" height="90" viewBox="0 0 290 90" fill="none" xmlns="http://www.w3.org/2000/svg">
<path d="M99.496 43.9482C99.412 41.8776 99.7389 39.811 100.458 37.8674C101.177 35.9239 102.273 34.1419 103.684 32.6243C105.095 31.1068 106.793 29.8836 108.679 29.0255C110.565 28.1673 112.603 27.6912 114.674 27.6245H115.317C123.322 27.6245 128.047 32.3333 129.444 37.8425L124.468 39.5062C124.021 37.4533 122.851 35.6294 121.171 34.3674C119.491 33.1053 117.414 32.4892 115.317 32.6315C110.138 32.6315 104.942 36.4142 104.942 44.0423C104.942 51.6705 110.012 55.3119 115.38 55.3119C117.487 55.3695 119.552 54.7188 121.245 53.4639C122.938 52.209 124.161 50.4224 124.719 48.3901L129.601 49.9597C128.758 53.0599 126.884 55.7803 124.287 57.6721C121.691 59.5639 118.527 60.5141 115.317 60.366C111.194 60.4416 107.21 58.8771 104.241 56.0163C101.271 53.1554 99.5586 49.2325 99.4803 45.1097C99.4646 44.733 99.4803 44.3406 99.496 43.9482Z" fill="#375BD2"/>
<path d="M139.285 59.6444H134.136V27.5308H139.285V40.0874C140.032 39.201 140.972 38.4969 142.033 38.0291C143.094 37.5612 144.247 37.3418 145.406 37.3877C150.727 37.3877 153.254 41.2018 153.254 45.9577V59.6444H148.294V46.868C148.443 45.7789 148.157 44.6749 147.5 43.7941C146.842 42.9133 145.865 42.3262 144.778 42.1593C144.47 42.1277 144.16 42.1277 143.852 42.1593C142.662 42.1593 141.52 42.6322 140.678 43.4741C139.836 44.3159 139.363 45.4577 139.363 46.6483C139.355 46.779 139.355 46.91 139.363 47.0407L139.285 59.6444Z" fill="#375BD2"/>
<path d="M164.806 47.276L170.331 46.4127C171.587 46.2558 171.901 45.6122 171.901 44.8431C171.901 43.0224 170.676 41.5627 167.82 41.5627C166.741 41.4755 165.671 41.8171 164.842 42.5135C164.014 43.2099 163.493 44.2049 163.393 45.2826V45.5181L158.685 44.4664C159.077 40.7308 162.467 37.4033 167.773 37.4033C174.428 37.4033 176.955 41.1703 176.955 45.5651V56.2854C176.949 57.447 177.038 58.6071 177.221 59.7542H172.513C172.343 58.8437 172.275 57.9172 172.309 56.9917C171.594 58.0917 170.603 58.985 169.436 59.5827C168.268 60.1803 166.964 60.4613 165.654 60.3977C163.864 60.5455 162.089 59.9773 160.718 58.818C159.347 57.6586 158.491 56.0027 158.339 54.2135C158.339 54.1037 158.339 53.9938 158.339 53.8996C158.261 49.9286 161.102 47.794 164.806 47.276ZM171.932 50.7448V49.7559L166.297 50.6035C165.532 50.6278 164.806 50.9467 164.271 51.4937C163.736 52.0407 163.433 52.7733 163.425 53.5386C163.431 53.9178 163.512 54.2921 163.665 54.6394C163.817 54.9868 164.037 55.3004 164.311 55.562C164.586 55.8235 164.91 56.0277 165.264 56.1627C165.619 56.2977 165.997 56.3607 166.376 56.3482H166.611C167.254 56.4154 167.903 56.3549 168.522 56.1701C169.141 55.9852 169.717 55.6798 170.218 55.2713C170.718 54.8628 171.133 54.3593 171.438 53.7899C171.743 53.2204 171.932 52.5963 171.995 51.9533C172.017 51.5488 171.991 51.143 171.916 50.7448H171.932Z" fill="#375BD2"/>
<path d="M185.713 27.091C186.155 27.0847 186.595 27.166 187.006 27.33C187.416 27.4941 187.791 27.7377 188.107 28.0469C188.424 28.3561 188.676 28.7248 188.85 29.1318C189.023 29.5388 189.115 29.976 189.119 30.4185C189.119 31.0808 188.923 31.7283 188.556 32.2796C188.189 32.8309 187.667 33.2614 187.056 33.5169C186.445 33.7725 185.772 33.8417 185.122 33.7159C184.472 33.59 183.873 33.2748 183.402 32.8097C182.93 32.3447 182.606 31.7506 182.472 31.1022C182.337 30.4537 182.396 29.7799 182.643 29.1654C182.891 28.5509 183.314 28.0231 183.86 27.6484C184.406 27.2737 185.051 27.0689 185.713 27.0596V27.091ZM183.202 59.7383V38.0466H188.35V59.6441L183.202 59.7383Z" fill="#375BD2"/>
<path d="M200.075 59.644H194.942V38.0465H199.949V40.9188C200.602 39.8159 201.539 38.9089 202.663 38.2931C203.787 37.6772 205.056 37.3752 206.337 37.4187C211.611 37.4187 214.185 41.2327 214.185 45.9886V59.644H209.053V46.8676C209.053 44.215 207.844 42.0646 204.611 42.0646C204.013 42.0687 203.422 42.1905 202.871 42.4231C202.321 42.6556 201.821 42.9944 201.401 43.42C200.982 43.8456 200.65 44.3497 200.425 44.9035C200.2 45.4573 200.086 46.0501 200.09 46.6478C200.09 46.8205 200.09 46.9931 200.09 47.1658L200.075 59.644Z" fill="#375BD2"/>
<path d="M220.401 59.6444V27.5308H225.549V59.6444H220.401Z" fill="#375BD2"/>
<path d="M234.731 27.0913C235.393 27.0882 236.042 27.2821 236.594 27.6482C237.146 28.0144 237.577 28.5364 237.832 29.1479C238.087 29.7594 238.155 30.4329 238.026 31.0829C237.898 31.7329 237.579 32.33 237.11 32.7985C236.642 33.267 236.045 33.5857 235.395 33.7142C234.745 33.8427 234.071 33.7752 233.46 33.5202C232.848 33.2653 232.326 32.8343 231.96 32.2821C231.594 31.7299 231.4 31.0814 231.403 30.4189C231.411 29.5389 231.765 28.6973 232.387 28.075C233.009 27.4527 233.851 27.0995 234.731 27.0913V27.0913ZM232.204 59.7386V38.047H237.305V59.6445L232.204 59.7386Z" fill="#375BD2"/>
<path d="M249.108 59.6446H243.96V38.0472H248.967V40.9195C249.621 39.8177 250.559 38.9116 251.682 38.296C252.806 37.6803 254.074 37.3775 255.355 37.4193C260.629 37.4193 263.203 41.2334 263.203 45.9893V59.6446H258.055V46.8682C258.203 45.7791 257.918 44.6751 257.26 43.7943C256.603 42.9136 255.625 42.3264 254.539 42.1595C254.226 42.128 253.91 42.128 253.597 42.1595C252.398 42.1719 251.252 42.6569 250.409 43.5092C249.566 44.3615 249.092 45.5122 249.092 46.7113C249.076 46.894 249.076 47.0778 249.092 47.2606L249.108 59.6446Z" fill="#375BD2"/>
<path d="M280.767 47.1662L289.823 59.7229H283.545L277.267 50.8234L274.614 53.6172V59.6444H269.513V27.5308H274.614V46.7738L282.901 38.047H289.729L280.767 47.1662Z" fill="#375BD2"/>
<path d="M38.5489 18.835L60.8056 31.6114V57.2897L38.6117 70.1446L16.3707 57.3996V31.7369L38.5489 18.835ZM38.5489 0L30.3871 4.70875L8.16183 17.6107L0 22.3195V66.8485L8.16183 71.5572L30.4185 84.3336L38.5803 89.0424L46.7422 84.3336L68.9203 71.4631L77.0822 66.7543V22.1625L68.9203 17.4537L46.6794 4.70875L38.5175 0H38.5489Z" fill="#375BD2"/>
</svg>
