<svg width="313" height="90" viewBox="0 0 313 90" fill="none" xmlns="http://www.w3.org/2000/svg">
<path fill-rule="evenodd" clip-rule="evenodd" d="M44.9512 89.9997C20.1411 90.0948 -0.111571 69.7674 0.000462586 44.7876C0.113429 20.0934 20.2673 -0.147991 45.2458 0.00081526C69.8671 0.14783 90.0888 20.3256 89.8964 45.3801C89.7075 69.9652 69.6902 90.0793 44.9512 89.9997" fill="#0090FF"/>
<path fill-rule="evenodd" clip-rule="evenodd" d="M50.5342 41.3632C54.4537 41.9179 58.2847 42.4588 62.2342 43.0178C62.5666 41.8276 62.8491 40.8129 63.1729 39.6528C59.1109 39.0508 55.2343 38.4764 51.0718 37.8598C52.4716 32.8996 53.6808 28.157 55.1931 23.5116C55.6912 21.9826 56.8042 20.5474 57.9386 19.3598C59.4269 17.8033 61.4863 18.1481 62.7469 19.8585C63.2751 20.5749 63.7723 21.3325 64.4052 21.9456C65.2134 22.7273 66.4045 23.1074 67.216 22.3464C67.7493 21.8467 67.7322 20.6712 67.782 19.7872C67.8017 19.432 67.3835 19.0141 67.0941 18.6864C65.6848 17.0887 63.7809 16.5228 61.7705 16.4385C57.2851 16.2502 54.0664 18.5402 51.539 22.0015C49.0348 25.4319 47.9364 29.465 46.741 33.4509C46.3923 34.6144 46.0935 35.7934 45.7431 37.0704C41.3762 36.4375 37.187 35.8303 32.876 35.2069C32.7231 36.3721 32.5805 37.4651 32.4285 38.626C36.6967 39.2839 40.7802 39.9125 45.0002 40.5626C44.4352 42.9464 43.9087 45.1711 43.3677 47.4534C39.2284 46.8738 35.3037 46.326 31.3525 45.7722C31.185 47.0501 31.0588 48.0158 30.9093 49.1526C34.8778 49.7597 38.7036 50.3445 42.5553 50.9336C42.5553 51.3687 42.6025 51.6215 42.5475 51.8511C41.3186 57.0959 40.1756 62.364 38.7973 67.5684C38.1386 70.0502 37.0788 72.446 35.0186 74.19C33.3225 75.6252 31.459 75.3853 30.1837 73.6043C29.6074 72.802 29.1265 71.8492 28.3656 71.2868C27.81 70.8749 26.5734 70.6272 26.1654 70.9574C25.5609 71.4476 25.1229 72.532 25.1744 73.3283C25.2182 74.0343 25.8966 74.8599 26.5193 75.3414C28.6173 76.959 31.0863 77.1938 33.5879 76.701C37.7779 75.8746 40.7329 73.2569 42.5647 69.5548C44.004 66.6448 45.0818 63.5369 46.1003 60.4437C47.0227 57.6429 47.6487 54.744 48.4302 51.7892C52.5455 52.3869 56.5792 52.9725 60.6962 53.5702C61.0362 52.3938 61.3428 51.3291 61.6735 50.1828C57.3658 49.5491 53.2557 48.9428 49.1104 48.3322C49.6084 45.896 50.0516 43.7264 50.5342 41.3632" fill="white"/>
<path d="M121.795 64.5363V46.9336H141.437V41.1577H121.795V30.4861H142.648V24.6553H114.808V64.5363H121.795ZM153.73 31.2563V24.6553H147.183V31.2563H153.73ZM153.73 64.5363V34.9418H147.183V64.5363H153.73ZM167.641 64.5363V24.6553H161.093V64.5363H167.641ZM188.291 65.2514C195.884 65.2514 200.395 60.4106 201.716 55.6799H195.279C194.123 58.4853 191.482 59.8055 188.016 59.8055C184.275 59.8055 180.423 57.1101 179.983 51.6093H202.046C202.651 41.7078 196.929 34.2817 187.851 34.2817C179.488 34.2817 173.326 40.6077 173.326 49.519C173.326 58.0453 178.773 65.2514 188.291 65.2514V65.2514ZM195.389 46.8236H179.983C180.588 41.2678 184.77 39.3975 187.851 39.3975C191.702 39.3975 195.224 42.2029 195.389 46.8236ZM220.688 65.2514C227.015 65.2514 233.122 61.3458 234.443 54.4147H228.061C227.18 58.3753 224.044 59.8055 220.798 59.8055C216.947 59.8055 213.205 56.7801 213.205 49.739C213.205 42.753 216.837 39.7275 220.963 39.7275C224.539 39.7275 227.235 41.9279 227.841 45.0633H234.223C233.067 38.5174 227.455 34.2817 220.963 34.2817C212.105 34.2817 206.438 40.9927 206.438 49.794C206.438 58.5954 212.105 65.2514 220.688 65.2514V65.2514ZM252.854 65.2514C260.062 65.2514 267.434 60.5206 267.434 49.794C267.434 39.1224 260.062 34.2817 252.854 34.2817C245.646 34.2817 238.274 39.1224 238.274 49.794C238.274 60.5206 245.646 65.2514 252.854 65.2514ZM252.854 59.9156C248.672 59.9156 245.041 56.6701 245.041 49.794C245.041 42.973 248.672 39.6175 252.854 39.6175C257.035 39.6175 260.667 42.973 260.667 49.794C260.667 56.6701 257.035 59.9156 252.854 59.9156ZM279.821 31.2563V24.6553H273.273V31.2563H279.821ZM279.821 64.5363V34.9418H273.273V64.5363H279.821ZM293.731 64.5363V48.8039C293.731 43.4681 295.547 39.6175 300.608 39.6175C305.67 39.6175 306.22 43.5781 306.22 47.5387V64.5363H312.768V45.9435C312.768 38.9024 309.852 34.2817 302.699 34.2817C298.518 34.2817 295.437 35.987 293.731 39.0674V34.9418H287.184V64.5363H293.731Z" fill="black"/>
</svg>
