<svg width="482" height="90" viewBox="0 0 482 90" fill="none" xmlns="http://www.w3.org/2000/svg">
<path d="M163.227 49.2846H181.37C183.919 49.2846 185.985 51.3661 185.985 53.9338C185.985 56.5016 183.919 58.5832 181.37 58.5832H159.486C159.144 58.5832 158.814 58.706 158.554 58.9298L151.947 64.6255C150.935 65.4974 151.547 67.1664 152.878 67.1664H180.274C180.286 67.1664 180.295 67.1572 180.295 67.146C180.295 67.1339 180.305 67.1244 180.317 67.1253C180.662 67.1526 181.01 67.1664 181.362 67.1664C188.629 67.1664 194.52 61.2421 194.52 53.9338C194.52 46.9939 189.208 41.3017 182.449 40.7458C182.438 40.7447 182.429 40.735 182.429 40.7234C182.429 40.7111 182.419 40.7012 182.406 40.7012H162.86C160.311 40.7012 158.245 38.6197 158.245 36.052C158.245 33.4842 160.311 31.4026 162.86 31.4026H184.714C185.074 31.4026 185.421 31.2661 185.685 31.0206L191.821 25.325C192.781 24.4341 192.155 22.8193 190.85 22.8193H163.227C163.225 22.8193 163.224 22.8202 163.224 22.8215C163.224 22.8229 163.223 22.824 163.222 22.824C163.104 22.8209 162.987 22.8193 162.869 22.8193C155.601 22.8193 149.71 28.7437 149.71 36.052C149.71 43.36 155.601 49.2846 162.869 49.2846C162.987 49.2846 163.104 49.2828 163.222 49.2798C163.223 49.2798 163.224 49.2809 163.224 49.2822C163.224 49.2835 163.225 49.2846 163.227 49.2846Z" fill="black"/>
<path d="M268.904 22.8193C268.11 22.8193 267.467 23.4656 267.467 24.2631V65.7227C267.467 66.5199 268.11 67.1664 268.904 67.1664H302.127C302.523 67.1664 302.904 67.0012 303.174 66.7101L307.333 62.2508C308.194 61.3285 307.542 59.8192 306.286 59.8192H277.277C276.485 59.8192 275.84 59.1729 275.84 58.3755V24.2631C275.84 23.4656 275.197 22.8193 274.405 22.8193H268.904Z" fill="black"/>
<path fill-rule="evenodd" clip-rule="evenodd" d="M215.69 22.8193C215.688 22.8193 215.686 22.8211 215.686 22.8231C215.686 22.8253 215.685 22.827 215.682 22.827C211.436 23.011 208.026 26.4281 207.843 30.6837C207.843 30.6856 207.841 30.6874 207.839 30.6874C207.838 30.6874 207.837 30.6878 207.836 30.6887C207.835 30.6894 207.835 30.6903 207.835 30.6911V58.5795C207.835 58.5815 207.837 58.5832 207.839 58.5832C207.841 58.5832 207.843 58.585 207.842 58.587C207.838 58.7042 207.835 58.8222 207.835 58.9408C207.835 63.3627 211.316 66.9695 215.682 67.1587C215.685 67.1587 215.686 67.1605 215.686 67.1625L215.687 67.1642L215.688 67.1656C215.688 67.1662 215.689 67.1664 215.69 67.1664H245.836C245.838 67.1664 245.841 67.1647 245.841 67.1625V67.1603L245.843 67.1592L245.845 67.1587C250.211 66.9695 253.692 63.3627 253.692 58.9408C253.692 58.8222 253.69 58.7042 253.685 58.587C253.685 58.585 253.685 58.5832 253.688 58.5832C253.69 58.5832 253.692 58.5815 253.692 58.5795V30.6911C253.692 30.6892 253.69 30.6874 253.688 30.6874C253.685 30.6874 253.683 30.6856 253.683 30.6837C253.5 26.4281 250.09 23.011 245.845 22.827C245.843 22.827 245.841 22.8253 245.841 22.8231C245.841 22.8211 245.838 22.8193 245.836 22.8193H215.69ZM221.31 30.6874L221.307 30.6883V30.6898C221.307 30.6911 221.305 30.6922 221.305 30.6922C218.651 30.808 216.52 32.9574 216.405 35.6343C216.405 35.6354 216.404 35.6365 216.402 35.6365C216.401 35.6365 216.4 35.6376 216.4 35.6389V53.1817C216.4 53.183 216.401 53.1839 216.402 53.1839C216.404 53.1839 216.405 53.185 216.405 53.1863C216.402 53.2602 216.4 53.3344 216.4 53.409C216.4 56.1904 218.576 58.4593 221.305 58.5782C221.305 58.5784 221.307 58.5795 221.307 58.5806V58.5821V58.5828L221.31 58.5832H240.218V58.583V58.5819L240.221 58.5806C240.221 58.5795 240.221 58.5784 240.223 58.5782C242.951 58.4593 245.128 56.1904 245.128 53.409C245.128 53.3344 245.125 53.2602 245.123 53.1863V53.1859V53.1852L245.125 53.1839C245.125 53.1839 245.128 53.183 245.128 53.1817V35.6389C245.128 35.6376 245.125 35.6365 245.125 35.6365C245.123 35.6365 245.121 35.6354 245.121 35.6343C245.007 32.9574 242.877 30.808 240.223 30.6922C240.221 30.6922 240.221 30.6911 240.221 30.6898L240.218 30.6885V30.6876V30.6874H221.31Z" fill="black"/>
<path fill-rule="evenodd" clip-rule="evenodd" d="M355.645 65.7227C355.645 66.5199 356.281 67.1664 357.069 67.1664H362.702C363.49 67.1664 364.128 66.5199 364.128 65.7227V31.4063C364.128 31.4043 364.126 31.4026 364.124 31.4026L364.121 31.4021V31.4017C364.121 31.4008 364.119 31.3999 364.119 31.3986C364.126 31.2813 364.128 31.1634 364.128 31.045C364.128 26.6231 360.68 23.0163 356.354 22.827C356.354 22.827 356.352 22.8253 356.352 22.8231C356.352 22.8211 356.349 22.8193 356.347 22.8193H327.406C327.404 22.8193 327.402 22.8209 327.402 22.8231C327.402 22.8251 327.4 22.8268 327.397 22.8268C327.283 22.8218 327.166 22.8193 327.048 22.8193C322.559 22.8193 318.919 26.5021 318.919 31.045C318.919 31.1634 318.921 31.2813 318.926 31.3986C318.926 31.4008 318.923 31.4026 318.921 31.4026C318.919 31.4026 318.919 31.4043 318.919 31.4063V65.7227C318.919 66.5199 319.557 67.1664 320.343 67.1664H325.978C326.764 67.1664 327.402 66.5199 327.402 65.7227V51.4437C327.402 50.6463 328.04 49.9998 328.826 49.9998H354.219C355.007 49.9998 355.645 50.6463 355.645 51.4437V65.7227ZM327.402 42.1185V34.979C327.402 32.2137 329.618 29.972 332.351 29.972H350.696C353.429 29.972 355.645 32.2137 355.645 34.979V42.1185C355.645 42.916 355.007 43.5622 354.219 43.5622H328.826C328.04 43.5622 327.402 42.916 327.402 42.1185Z" fill="black"/>
<path fill-rule="evenodd" clip-rule="evenodd" d="M474.584 67.1664C473.79 67.1664 473.145 66.5199 473.145 65.7227V51.4437C473.145 50.6463 472.5 49.9998 471.708 49.9998H446.033C445.238 49.9998 444.596 50.6463 444.596 51.4437V65.7227C444.596 66.5199 443.951 67.1664 443.157 67.1664H437.468C436.674 67.1664 436.029 66.5199 436.029 65.7227V31.4063V31.4054L436.032 31.4041C436.032 31.4032 436.032 31.4026 436.034 31.4026C436.036 31.4026 436.038 31.4008 436.038 31.3986C436.032 31.2813 436.029 31.1634 436.029 31.045C436.029 26.5021 439.704 22.8193 444.237 22.8193C444.356 22.8193 444.475 22.8218 444.591 22.8268C444.594 22.8268 444.596 22.8251 444.596 22.8231C444.596 22.8209 444.596 22.8193 444.598 22.8193H473.856C473.858 22.8193 473.858 22.8211 473.858 22.8231C473.858 22.8253 473.86 22.827 473.862 22.827C478.228 23.0163 481.709 26.6231 481.709 31.045C481.709 31.1634 481.707 31.2813 481.703 31.3986C481.703 31.4008 481.705 31.4026 481.707 31.4026C481.707 31.4026 481.709 31.403 481.709 31.4037C481.709 31.4043 481.709 31.4054 481.709 31.4063V65.7227C481.709 66.5199 481.067 67.1664 480.272 67.1664H474.584ZM444.596 34.979V42.1185C444.596 42.916 445.238 43.5622 446.033 43.5622H471.708C472.5 43.5622 473.145 42.916 473.145 42.1185V34.979C473.145 32.2137 470.909 29.972 468.15 29.972H449.591C446.832 29.972 444.596 32.2137 444.596 34.979Z" fill="black"/>
<path d="M385.336 22.8193C385.754 22.8193 386.151 23.0046 386.421 23.3263L411.689 53.4506C412.55 54.4718 414.198 53.8559 414.198 52.5136V24.2631C414.198 23.4656 414.836 22.8193 415.624 22.8193H421.257C422.045 22.8193 422.683 23.4656 422.683 24.2631V65.7227C422.683 66.5199 422.045 67.1664 421.257 67.1664H414.253C414.222 67.1664 414.198 67.1422 414.198 67.1125C414.198 67.0995 414.194 67.0868 414.185 67.0771L388.492 37.1628C387.625 36.158 385.994 36.7786 385.994 38.1125V65.7227C385.994 66.5199 385.356 67.1664 384.568 67.1664H378.898C378.112 67.1664 377.474 66.5199 377.474 65.7227V24.2631C377.474 23.4656 378.112 22.8193 378.898 22.8193H385.336Z" fill="black"/>
<path d="M18.7159 68.6939C19.4185 67.992 20.3711 67.5977 21.3643 67.5977H113.006C114.675 67.5977 115.511 69.6162 114.33 70.7963L96.222 88.89C95.5194 89.592 94.5668 89.9865 93.5735 89.9865H1.93189C0.262469 89.9865 -0.573239 87.9678 0.607691 86.7877L18.7159 68.6939Z" fill="url(#paint0_linear)"/>
<path d="M18.7159 1.09639C19.4185 0.394352 20.3711 0 21.3643 0H113.006C114.675 0 115.511 2.01871 114.33 3.1987L96.222 21.2925C95.5194 21.9945 94.5668 22.3889 93.5735 22.3889H1.93189C0.262469 22.3889 -0.573239 20.3701 0.607691 19.1902L18.7159 1.09639Z" fill="url(#paint1_linear)"/>
<path d="M96.2219 34.679C95.5193 33.9771 94.5667 33.5825 93.5734 33.5825H1.93177C0.262348 33.5825 -0.573363 35.6012 0.607569 36.7814L18.7158 54.8751C19.4184 55.5771 20.3709 55.9714 21.3642 55.9714H113.006C114.675 55.9714 115.511 53.9527 114.33 52.7728L96.2219 34.679Z" fill="url(#paint2_linear)"/>
<defs>
<linearGradient id="paint0_linear" x1="77.6855" y1="-24.6833" x2="14.2617" y2="96.7988" gradientUnits="userSpaceOnUse">
<stop stop-color="#00FFA3"/>
<stop offset="1" stop-color="#DC1FFF"/>
</linearGradient>
<linearGradient id="paint1_linear" x1="77.6855" y1="-24.6838" x2="14.2617" y2="96.7984" gradientUnits="userSpaceOnUse">
<stop stop-color="#00FFA3"/>
<stop offset="1" stop-color="#DC1FFF"/>
</linearGradient>
<linearGradient id="paint2_linear" x1="77.6854" y1="-24.6845" x2="14.2615" y2="96.7977" gradientUnits="userSpaceOnUse">
<stop stop-color="#00FFA3"/>
<stop offset="1" stop-color="#DC1FFF"/>
</linearGradient>
</defs>
</svg>
