<svg width="2957" height="632" viewBox="0 0 2957 632" fill="none" xmlns="http://www.w3.org/2000/svg">
<g clip-path="url(#clip0_1511_161)">
<path d="M918.339 94.2871C883.719 94.2871 850.354 98.634 836.766 102.309C816.989 107.866 812.056 116.514 808.334 134.44L729.855 496.306C728.599 503.7 727.388 509.884 727.388 516.069C727.388 533.994 739.138 545.69 758.287 545.69C779.319 545.69 787.974 532.112 792.279 511.094L814.523 407.979C829.949 409.817 850.354 411.699 879.414 411.699C1007.36 411.699 1087.05 342.552 1087.05 238.182C1087.05 146.763 1023.37 94.2871 918.339 94.2871ZM876.319 352.411C856.543 352.411 841.071 351.784 826.9 349.946L868.292 157.877C881.252 156.04 900.446 153.53 920.223 153.53C988.208 153.53 1022.83 185.661 1022.83 238.765C1022.78 306.701 973.319 352.411 876.319 352.411Z" fill="black"/>
<path d="M2931.66 426.487C2921.17 426.487 2914.35 432.671 2901.39 446.877C2878.52 470.359 2864.31 483.31 2846.41 483.31C2830.36 483.31 2821.7 470.359 2821.7 449.342C2821.7 437.601 2824.17 423.395 2827.26 407.979L2850.13 300.517H2918.75C2940.36 300.517 2953.37 288.149 2953.37 265.922C2953.37 253.553 2945.34 244.322 2926.82 244.322H2862.47L2873.59 194.31C2874.84 186.916 2876.05 180.104 2876.05 173.92C2876.05 156.622 2864.31 144.254 2845.16 144.254C2824.75 144.254 2815.51 157.832 2811.16 178.85L2796.95 244.322H2767.89C2745.65 244.322 2732.68 256.69 2732.68 278.917C2732.68 291.286 2741.34 300.517 2759.86 300.517H2785.2L2762.33 406.725C2759.86 418.466 2756.77 437.601 2756.77 457.363C2756.77 507.375 2782.73 543.808 2838.34 543.808C2870.49 543.808 2898.88 527.765 2920.54 508.585C2941.57 490.077 2957 467.222 2957 452.389C2957 438.228 2945.88 426.487 2931.66 426.487Z" fill="black"/>
<path d="M1510.34 130.72C1510.34 112.795 1497.96 101.054 1478.81 101.054C1458.41 101.054 1449.17 114.632 1444.82 135.649L1367.6 494.424C1365.76 501.818 1364.5 508.002 1364.5 514.186C1364.5 532.112 1376.88 543.808 1395.4 543.808C1416.43 543.808 1425.67 530.229 1430.02 509.212L1507.25 150.483C1508.5 143.044 1510.34 136.904 1510.34 130.72Z" fill="black"/>
<path d="M2613.4 238.137C2514.51 238.137 2447.16 336.323 2447.16 429.579C2447.16 431.326 2447.2 433.074 2447.25 434.777C2431.73 458.304 2411.91 482.682 2398.32 482.682C2388.45 482.682 2384.73 473.406 2384.73 459.2C2384.73 441.902 2389.66 412.863 2395.22 387.544L2446.53 150.393C2447.78 142.999 2448.99 136.814 2448.99 130.63C2448.99 112.705 2437.24 100.964 2418.1 100.964C2397.06 100.964 2388.45 114.542 2384.1 135.56L2356.3 263.994C2341.46 248.578 2319.8 238.047 2287.06 238.047C2221.4 238.047 2155.35 288.552 2129.61 366.034C2101.26 439.258 2075.93 482.593 2055.93 482.593C2048.53 482.593 2044.18 476.408 2044.18 465.922C2044.18 435.046 2061.49 359.715 2068.89 323.282C2071.35 309.704 2072.61 304.147 2072.61 296.125C2072.61 268.968 2027.49 236.837 1968.79 236.837C1900.9 236.837 1839.41 279.813 1808.61 343.627C1762.82 424.47 1720.8 482.593 1699.99 482.593C1690.71 482.593 1687.61 470.852 1685.15 459.738L1669.76 374.638L1764.3 297.47C1772.95 290.075 1784.07 279.544 1784.07 265.966C1784.07 249.295 1772.95 238.182 1756.27 238.182C1743.89 238.182 1733.4 245.576 1722.91 254.225L1580.79 371.546L1628.37 150.482C1629.63 143.088 1631.47 136.904 1631.47 130.72C1631.47 112.795 1619.09 101.053 1599.94 101.053C1579.54 101.053 1570.3 114.632 1565.95 135.649L1488.72 494.423C1486.89 501.818 1485.63 508.002 1485.63 514.186C1485.63 532.111 1498.01 543.807 1516.53 543.807C1537.56 543.807 1546.8 530.229 1551.15 509.212L1561.06 462.92L1619.13 416L1633.35 487.612C1638.91 516.023 1653.75 543.807 1692.05 543.807C1730.17 543.807 1760.17 509.032 1790.22 462.023C1799.32 511.273 1834.39 543.807 1883.05 543.807C1931.88 543.807 1965.25 514.769 1986.86 475.871V477.125C1986.86 517.278 2007.27 543.807 2043.1 543.807C2075.52 543.807 2102.43 524.269 2126.47 482.772C2140.1 518.936 2170.6 543.807 2213.02 543.807C2263.07 543.807 2298.9 513.559 2321.77 471.569V475.288C2321.77 519.743 2344.01 543.852 2380.47 543.852C2412.67 543.852 2440.03 525.165 2463.39 494.782C2481.15 525.165 2512.99 543.852 2555.99 543.852C2654.88 543.852 2722.24 445.667 2722.24 351.783C2722.19 285.684 2682.01 238.137 2613.4 238.137ZM1997.31 363.524C1979.38 440.692 1941.08 484.565 1897.8 484.565C1868.74 484.565 1852.69 462.337 1852.69 428.996C1852.69 363.524 1900.27 293.123 1963.9 293.123C1983.05 293.123 1997.9 298.68 2010.86 306.701L1997.31 363.524ZM2341.5 330.811C2321.72 421.602 2276.61 484.565 2227.19 484.565C2200.01 484.565 2183.91 463.547 2183.91 428.996C2183.91 362.942 2229.66 294.377 2290.83 294.377C2314.32 294.377 2332.22 302.399 2345.22 312.885L2341.5 330.811ZM2563.35 484.565C2527.52 484.565 2512.67 458.618 2512.67 425.904C2512.67 365.989 2554.07 297.47 2606 297.47C2641.83 297.47 2656.67 323.416 2656.67 356.13C2656.67 416.628 2615.28 484.565 2563.35 484.565Z" fill="black"/>
<path d="M1240.91 238.137C1142.03 238.137 1074.67 336.322 1074.67 429.579C1074.67 496.26 1114.85 543.807 1183.42 543.807C1282.3 543.807 1349.66 445.622 1349.66 351.738C1349.66 285.683 1309.48 238.137 1240.91 238.137ZM1190.86 484.564C1155.03 484.564 1140.19 458.617 1140.19 425.904C1140.19 365.989 1181.58 297.469 1233.51 297.469C1269.34 297.469 1284.19 323.416 1284.19 356.13C1284.14 416.628 1242.75 484.564 1190.86 484.564Z" fill="black"/>
<path d="M297.323 132.557C360.307 132.557 411.365 102.883 411.365 66.2787C411.365 29.674 360.307 0 297.323 0C234.34 0 183.282 29.674 183.282 66.2787C183.282 102.883 234.34 132.557 297.323 132.557Z" fill="#E6007A"/>
<path d="M297.323 631.955C360.307 631.955 411.365 602.281 411.365 565.676C411.365 529.071 360.307 499.397 297.323 499.397C234.34 499.397 183.282 529.071 183.282 565.676C183.282 602.281 234.34 631.955 297.323 631.955Z" fill="#E6007A"/>
<path d="M138.399 224.302C169.891 169.798 169.686 110.766 137.943 92.4512C106.199 74.1365 54.9366 103.474 23.4449 157.979C-8.04668 212.483 -7.84229 271.515 23.9015 289.83C55.6452 308.144 106.908 278.807 138.399 224.302Z" fill="#E6007A"/>
<path d="M571.153 473.972C602.644 419.468 602.457 360.446 570.735 342.144C539.013 323.841 487.768 353.189 456.276 407.694C424.784 462.198 424.971 521.22 456.694 539.522C488.416 557.824 539.661 528.477 571.153 473.972Z" fill="#E6007A"/>
<path d="M137.959 539.507C169.702 521.192 169.907 462.16 138.415 407.656C106.924 353.151 55.6611 323.814 23.9174 342.128C-7.82636 360.443 -8.03076 419.475 23.4609 473.979C54.9525 528.484 106.215 557.822 137.959 539.507Z" fill="#E6007A"/>
<path d="M570.762 289.845C602.484 271.542 602.671 212.521 571.179 158.016C539.688 103.511 488.443 74.1638 456.721 92.4661C424.998 110.768 424.811 169.79 456.303 224.295C487.794 278.799 539.039 308.147 570.762 289.845Z" fill="#E6007A"/>
</g>
<defs>
<clipPath id="clip0_1511_161">
<rect width="2957" height="632" fill="white"/>
</clipPath>
</defs>
</svg>
